<svg xmlns="http://www.w3.org/2000/svg" height="24px" viewBox="0 -960 960 960" width="24px" fill="#e8e3e1"><path d="M42-120v-112q0-33 17-62t47-44q51-26 115-44t141-18q77 0 141 18t115 44q30 15 47 44t17 62v112H42Zm80-80h480v-32q0-11-5.5-20T582-266q-36-18-92.5-36T362-320q-71 0-127.5 18T142-266q-9 5-14.5 14t-5.5 20v32Zm127-287q-47-47-47-113h-10q-9 0-14.5-5.5T172-620q0-9 5.5-14.5T192-640h10q0-45 22-81t58-57v38q0 9 5.5 14.5T302-720q9 0 14.5-5.5T322-740v-54q9-3 19-4.5t21-1.5q11 0 21 1.5t19 4.5v54q0 9 5.5 14.5T422-720q9 0 14.5-5.5T442-740v-38q36 21 58 57t22 81h10q9 0 14.5 5.5T552-620q0 9-5.5 14.5T532-600h-10q0 66-47 113t-113 47q-66 0-113-47Zm169.5-56.5Q442-567 442-600H282q0 33 23.5 56.5T362-520q33 0 56.5-23.5ZM662-360l-6-30q-6-2-11.5-4.5T634-402l-28 10-20-36 22-20v-24l-22-20 20-36 28 10q4-4 10-7t12-5l6-30h40l6 30q6 2 12 5t10 7l28-10 20 36-22 20v24l22 20-20 36-28-10q-5 5-10.5 7.5T708-390l-6 30h-40Zm41-79q9-9 9-21t-9-21q-9-9-21-9t-21 9q-9 9-9 21t9 21q9 9 21 9t21-9Zm51-121-8-42q-9-3-16.5-7.5T716-620l-42 14-28-48 34-30q-2-5-2-8v-16q0-3 2-8l-34-30 28-48 42 14q6-6 13.5-10.5T746-798l8-42h56l8 42q9 3 16.5 7.5T848-780l42-14 28 48-34 30q2 5 2 8v16q0 3-2 8l34 30-28 48-42-14q-6 6-13.5 10.5T818-602l-8 42h-56Zm63.5-104.5Q832-679 832-700t-14.5-35.5Q803-750 782-750t-35.5 14.5Q732-721 732-700t14.5 35.5Q761-650 782-650t35.5-14.5ZM362-200Z"/></svg>